<?xml version="1.0" standalone="no"?>
<!DOCTYPE svg PUBLIC "-//W3C//DTD SVG 20010904//EN"
 "http://www.w3.org/TR/2001/REC-SVG-20010904/DTD/svg10.dtd">
<svg version="1.0" xmlns="http://www.w3.org/2000/svg"
 width="512.000000pt" height="512.000000pt" viewBox="0 0 512.000000 512.000000"
 preserveAspectRatio="xMidYMid meet">
<metadata>
Created by potrace 1.14, written by Peter Selinger 2001-2017
</metadata>
<g transform="translate(0.000000,512.000000) scale(0.100000,-0.100000)"
fill="#000000" stroke="none">
<path d="M2436 5105 c-104 -27 -184 -72 -260 -149 -104 -104 -158 -229 -165
-381 -1 -7 -66 -11 -193 -10 -106 0 -206 -3 -223 -7 -16 -4 -40 -20 -52 -35
l-22 -28 -353 0 c-265 -1 -363 -4 -393 -14 -86 -29 -163 -109 -186 -195 -17
-60 -16 -4004 0 -4072 7 -27 24 -67 39 -89 30 -44 106 -100 156 -114 18 -5
756 -9 1791 -8 l1760 2 50 26 c75 40 124 101 150 188 10 32 10 4007 0 4052
-17 77 -82 163 -150 194 -56 27 -119 31 -449 30 l-330 0 -33 31 c-18 18 -43
33 -56 36 -12 2 -109 3 -214 3 -128 -1 -193 3 -194 10 -1 5 -3 30 -5 55 -17
201 -178 400 -374 461 -86 26 -218 33 -294 14z m198 -196 c142 -33 243 -141
266 -283 5 -31 7 -64 6 -73 -2 -10 -6 -35 -10 -55 -8 -46 13 -101 46 -119 17
-10 82 -14 238 -14 l215 -1 2 -180 3 -179 -840 0 -839 0 0 177 c0 98 3 178 7
179 4 1 102 2 217 3 146 1 217 6 232 14 33 19 52 61 46 107 -10 83 -8 132 5
180 52 178 231 285 406 244z m-1116 -714 l3 -100 -242 0 -241 0 -29 -33 c-19
-21 -29 -44 -30 -65 0 -17 -1 -815 -1 -1772 -1 -1929 -6 -1790 63 -1814 23 -8
458 -11 1526 -11 1620 0 1532 -3 1562 53 11 21 14 326 13 1774 0 961 -1 1760
-1 1775 -1 16 -14 42 -30 60 l-29 32 -238 1 -239 0 0 100 0 100 342 0 343 0
26 -27 27 -26 -1 -1969 c0 -1082 -1 -1980 -1 -1994 -1 -15 -13 -38 -27 -53
l-27 -26 -1724 0 c-1892 0 -1762 -4 -1778 58 -4 15 -7 917 -8 2005 l0 1978 23
24 c12 13 32 25 44 27 11 2 167 3 346 3 l325 0 3 -100z m18 -337 c13 -20 34
-40 46 -44 33 -12 1917 -12 1951 -1 16 5 39 26 51 46 l23 37 168 -1 168 0 0
-1228 c0 -675 -3 -1230 -6 -1233 -3 -4 -464 -6 -1023 -6 -1109 1 -1064 3
-1095 -54 -19 -37 -19 -472 0 -508 29 -54 26 -53 683 -52 398 1 609 -2 611 -9
2 -5 3 -53 2 -105 l0 -95 -967 -3 c-917 -2 -968 -1 -969 15 -1 22 -1 3266 0
3273 1 3 76 5 167 5 l167 0 23 -37z m1579 -2735 c1 -57 -1 -104 -4 -104 -3 -1
-252 -2 -553 -3 -375 -1 -548 1 -551 9 -2 8 -1 136 2 186 1 15 50 16 553 15
l552 -1 1 -102z m675 100 c0 -8 -462 -473 -470 -473 -4 0 -5 471 -1 477 4 6
471 2 471 -4z m152 -375 c0 -123 -1 -229 -1 -235 -1 -10 -57 -13 -243 -13
l-243 0 240 240 c131 131 241 237 243 235 2 -2 4 -104 4 -227z"/>
<path d="M1762 3553 c-52 -17 -69 -52 -71 -142 0 -13 -1 -25 -3 -27 -2 -1 -44
-4 -93 -5 -111 -2 -151 -17 -170 -63 -18 -44 -22 -494 -4 -544 18 -52 49 -65
165 -66 l102 0 5 -65 c4 -58 9 -69 36 -92 l32 -26 197 -1 c291 -1 286 -5 285
249 0 165 0 169 21 170 140 4 599 0 604 -6 4 -4 7 -78 8 -164 0 -168 8 -206
47 -231 32 -21 409 -24 449 -4 23 12 59 61 58 79 0 3 0 24 0 48 l0 44 103 0
c117 0 148 12 166 65 7 19 11 127 11 275 0 274 -4 293 -66 319 -21 9 -64 14
-107 13 -121 -2 -112 -6 -112 55 0 64 -18 101 -57 117 -40 16 -406 16 -436 0
-49 -26 -55 -50 -55 -235 l-1 -173 -315 1 -316 1 -1 171 c-2 249 2 245 -265
247 -117 1 -195 -2 -217 -10z m276 -198 c3 -3 6 -146 6 -319 l1 -315 -75 2
-75 2 -1 317 -1 317 36 3 c45 4 102 0 109 -7z m1178 6 c8 -1 11 -89 10 -318
l-1 -318 -74 0 -74 0 -1 314 c-1 354 -8 327 81 324 26 -1 53 -2 59 -2z m-1526
-238 c1 -32 2 -93 3 -136 2 -83 -1 -87 -73 -78 -7 1 -10 49 -9 136 l1 135 39
0 39 0 0 -57z m1818 -80 c2 -114 0 -133 -13 -134 -65 -6 -60 -13 -65 96 -3 55
-3 116 -2 136 4 34 5 36 40 35 l37 -1 3 -132z"/>
<path d="M1524 2310 c-12 -4 -31 -21 -43 -36 -30 -38 -21 -89 20 -126 l29 -28
841 0 841 0 35 35 c32 32 35 39 28 73 -3 20 -18 49 -32 64 l-26 28 -836 -1
c-460 0 -846 -4 -857 -9z"/>
<path d="M3508 2303 c-84 -52 -46 -183 53 -183 27 0 77 29 85 49 23 59 1 123
-48 140 -42 15 -58 13 -90 -6z"/>
<path d="M1499 1883 c-90 -76 -1 -210 106 -161 56 25 72 105 30 151 -28 30
-26 29 -74 31 -23 2 -43 -5 -62 -21z"/>
<path d="M1915 1903 c-30 -8 -63 -42 -70 -74 -8 -37 18 -93 51 -108 34 -15
1672 -16 1707 0 57 26 70 111 23 158 l-26 26 -833 1 c-457 1 -841 0 -852 -3z"/>
</g>
</svg>
